# AST/ASF file generated using VICON BodyLanguage
# -----------------------------------------------
:version 1.10
:name VICON
:units
  mass 1.0
  length 0.45
  angle deg
:documentation
   .ast/.asf automatically generated from VICON data using
   VICON BodyBuilder and BodyLanguage model FoxedUp or BRILLIANT.MOD
:root
   order TX TY TZ RX RY RZ
   axis XYZ
   position 0 0 0  
   orientation 0 0 0 
:bonedata
  begin
     id 1 
     name lhipjoint
     direction 0.78388 -0.462562 0.414208 
     length 3.01181 
     axis 0 0 0  XYZ
  end
  begin
     id 2 
     name lfemur
     direction 0.34202 -0.939693 0  
     length 6.04673  
     axis 0 0 20  XYZ
    dof rx ry rz
    limits (-160.0 20.0)
           (-70.0 70.0)
           (-60.0 70.0)
  end
  begin
     id 3 
     name ltibia
     direction 0.34202 -0.939693 0   
     length 7.211   
     axis 0 0 20   XYZ
    dof rx
    limits (-10.0 170.0)
  end
  begin
     id 4 
     name lfoot
     direction 0.121887 -0.334882 0.934344   
     length 2.13567   
     axis -90 7.62852e-016 20   XYZ
    dof rx rz
    limits (-45.0 90.0)
           (-70.0 20.0)
  end
  begin
     id 5 
     name ltoes
     direction 1.53555e-011 -4.2179e-011 1   
     length 1.05957   
     axis -90 7.62852e-016 20   XYZ
    dof rx
    limits (-90.0 20.0)
  end
  begin
     id 6 
     name rhipjoint
     direction -0.769387 -0.475875 0.426129   
     length 2.92756  
     axis 0 0 0  XYZ 
  end
  begin
     id 7 
     name rfemur
     direction -0.34202 -0.939693 0   
     length 6.35468   
     axis 0 0 -20   XYZ
    dof rx ry rz
    limits (-160.0 20.0)
           (-70.0 70.0)
           (-70.0 60.0)
  end
  begin
     id 8 
     name rtibia
     direction -0.34202 -0.939693 0   
     length 7.37886   
     axis 0 0 -20   XYZ
    dof rx
    limits (-10.0 170.0)
 end
 begin
     id 9 
     name rfoot
     direction -0.101763 -0.279592 0.954711   
     length 2.21478  
     axis -90 -7.62852e-016 -20   XYZ
    dof rx rz
    limits (-45.0 90.0)
           (-20.0 70.0)
  end
  begin
     id 10 
     name rtoes
     direction -1.53494e-011 -4.21851e-011 1   
     length 1.10506   
     axis -90 -7.62852e-016 -20   XYZ
    dof rx
    limits (-90.0 20.0)
  end
  begin
     id 11 
     name lowerback
     direction 0.00747405 0.999267 0.0375481   
     length 2.13259   
     axis 0 0 0   XYZ
    dof rx ry rz
    limits (-20.0 45.0)
           (-30.0 30.0)
           (-30.0 30.0)
  end
  begin
     id 12 
     name upperback
     direction 0.00661626 0.996177 0.0871029   
     length 2.10528   
     axis 0 0 0   XYZ
    dof rx ry rz
    limits (-20.0 45.0)
           (-30.0 30.0)
           (-30.0 30.0)
  end
  begin
     id 13 
     name thorax
     direction 0.00320659 0.997679 0.0680167   
     length 2.11338   
     axis 0 0 0   XYZ
    dof rx ry rz
    limits (-20.0 45.0)
           (-30.0 30.0)
           (-30.0 30.0)
  end
  begin
     id 14 
     name lowerneck
     direction 0.0374841 0.973033 0.227602   
     length 1.42765   
     axis 0 0 0   XYZ
    dof rx ry rz
    limits (-20.0 45.0)
           (-30.0 30.0)
           (-30.0 30.0)
  end
  begin
     id 15 
     name upperneck
     direction 0.00481585 0.989155 -0.146795   
     length 1.47593   
     axis 0 0 0   XYZ
    dof rx ry rz
    limits (-20.0 45.0)
           (-30.0 30.0)
           (-30.0 30.0)
  end
  begin
     id 16
     name head
     direction -0.00292522 0.997206 -0.0746423  
     length 1.48116  
     axis 0 0 0   XYZ
    dof rx ry rz
    limits (-20.0 45.0)
           (-30.0 30.0)
           (-30.0 30.0)
  end
  begin
     id 17 
     name lclavicle
     direction 0.951444 0.305606 0.0368784  
     length 3.01855  
     axis 0 0 0   XYZ
    dof ry rz
    limits (-20.0 10.0)
           (0.0 20.0)
  end
  begin
     id 18 
     name lhumerus
     direction 1 -4.48977e-011 2.61664e-027   
     length 5.52731   
     axis 180 -30 -90   XYZ
    dof rx ry rz
    limits (-60.0 90.0)
           (-90.0 90.0)
           (-90.0 90.0)
  end
  begin
     id 19
     name lradius
     direction 1 -4.48944e-011 8.22157e-027   
     length 3.11059   
     axis 180 -30 -90   XYZ
    dof rx
    limits (-10.0 170.0)
  end
  begin
     id 20
     name lwrist
     direction 1 -4.48976e-011 1.5779e-026   
     length 1.5553   
     axis -1.15221e-014 90 90   XYZ
    dof ry
    limits (-180.0 0.0)
 end
  begin
     id 21 
     name lhand
     direction 1 -4.49025e-011 3.1558e-026   
     length 0.419626   
     axis -2.01367e-014 90 90   XYZ
    dof rx rz
    limits (-90.0 90.0)
           (-45.0 45.0)
  end
  begin
     id 22 
     name lfingers
     direction 1 -4.4904e-011 6.31161e-026   
     length 0.338313   
     axis -4.02734e-014 90 90   XYZ
    dof rx
    limits (0.0 90.0)
  end
  begin
     id 23
     name lthumb
     direction 0.707107 -6.35004e-011 0.707107   
     length 0.485752   
     axis -90 45 2.85299e-015   XYZ
    dof rx rz
    limits (-45.0 45.0)
           (-45.0 45.0)
  end
  begin
     id 24 
     name rclavicle
     direction -0.968876 0.223791 0.105816   
     length 3.04177  
     axis 0 0 0   XYZ 
    dof ry rz
    limits (-10.0 20.0)
           (-20.0 0.0)
  end
  begin
     id 25 
     name rhumerus
     direction -1 -4.48962e-011 -1.01384e-027  
     length 5.25396   
     axis 180 30 90   XYZ
    dof rx ry rz
    limits (-90.0 60.0)
           (-90.0 90.0)
           (-90.0 90.0)
  end
  begin
     id 26 
     name rradius
     direction -1 -4.48955e-011 8.88542e-027   
     length 3.10567   
     axis 180 30 90   XYZ
    dof rx
    limits (-10.0 170.0)
  end
  begin
     id 27 
     name rwrist
     direction -1 -4.48994e-011 1.5779e-026   
     length 1.55283   
     axis -1.15221e-014 -90 -90   XYZ
    dof ry
    limits (-180.0 0.0)
  end
  begin
     id 28
     name rhand
     direction -1 -4.48891e-011 3.1558e-026   
     length 0.498676   
     axis -2.01367e-014 -90 -90   XYZ
    dof rx rz
    limits (-90.0 90.0)
           (-45.0 45.0)
  end
  begin
     id 29
     name rfingers
     direction -1 -4.48972e-011 6.31161e-026   
     length 0.402045   
     axis -4.02734e-014 -90 -90   XYZ
    dof rx
    limits (0.0 90.0)
  end
  begin
     id 30
     name rthumb
     direction -0.707107 -6.34849e-011 0.707107   
     length 0.577259   
     axis -90 -45 -2.85299e-015   XYZ
    dof rx rz
    limits (-45.0 45.0)
           (-45.0 45.0)
  end
:hierarchy
  begin
    root lhipjoint rhipjoint lowerback
    lhipjoint lfemur
    lfemur ltibia
    ltibia lfoot
    lfoot ltoes
    rhipjoint rfemur
    rfemur rtibia
    rtibia rfoot
    rfoot rtoes
    lowerback upperback
    upperback thorax
    thorax lowerneck lclavicle rclavicle
    lowerneck upperneck
    upperneck head
    lclavicle lhumerus
    lhumerus lradius
    lradius lwrist
    lwrist lhand lthumb
    lhand lfingers
    rclavicle rhumerus
    rhumerus rradius
    rradius rwrist
    rwrist rhand rthumb
    rhand rfingers
  end

#!OML:ASF H:\Pregnant\Project 1\Capture day 1\Session 1\femalepreg.ASF
:FULLY-SPECIFIED
:DEGREES
1
root 6.90118 15.712 25.0747 45.3058 -87.8048 -28.7032
lowerback -25.0736 1.73286 1.9387
upperback -6.52097 1.12346 1.31908
thorax 6.72979 0.3349 0.643274
lowerneck -14.4801 7.94167 8.07318
upperneck 19.0376 11.5923 -11.8349
head 9.5996 4.71686 -3.90436
rclavicle 9.79014e-015 3.97569e-016
rhumerus -29.4259 -19.8696 -39.2175
rradius 149.035
rwrist 0.0385739
rhand -37.1877 -17.7346
rfingers 7.12502
rthumb -10.2557 -47.4646
lclavicle 9.79014e-015 3.97569e-016
lhumerus -22.8578 16.2584 31.4603
lradius 135.36
lwrist 27.9122
lhand -15.1673 -21.546
lfingers 7.12502
lthumb 11.0034 8.14559
rfemur -23.0053 22.1226 12.891
rtibia 26.3532
rfoot -15.3795 -21.5647
rtoes -12.98
lfemur 0 0 0
ltibia 0
lfoot 0 0
ltoes 0
2
root 6.89248 15.7113 25.0737 44.6199 -87.7811 -27.9839
lowerback -25.1493 1.68881 1.85883
upperback -6.56078 1.0758 1.36521
thorax 6.72122 0.308907 0.725837
lowerneck -14.5484 7.97326 8.22675
upperneck 19.0027 11.6523 -12.0916
head 9.63517 4.7266 -4.0084
rclavicle 1.54058e-015 -2.78299e-015
rhumerus -28.5026 -21.1406 -38.0626
rradius 149.051
rwrist 0.307744
rhand -37.099 -18.0213
rfingers 7.12502
rthumb -10.1702 -47.7555
lclavicle 1.54058e-015 -2.78299e-015
lhumerus -22.535 17.1393 30.5442
lradius 135.445
lwrist 27.9053
lhand -15.81 -22.2661
lfingers 7.12502
lthumb 10.3834 7.45753
rfemur -22.9997 22.1671 12.8833
rtibia 26.3676
rfoot -15.4001 -21.6536
rtoes -13.0237
lfemur 0 0 0
ltibia 0
lfoot 0 0
ltoes 0
3
root 6.88357 15.7118 25.0733 44.2368 -87.7654 -27.5611
lowerback -25.2251 1.66851 1.8038
upperback -6.59274 1.05555 1.38632
thorax 6.72245 0.296765 0.775209
lowerneck -14.5048 7.9806 8.08383
upperneck 18.8411 11.6621 -12.0015
head 9.55641 4.7378 -3.95074
rclavicle 1.10325e-014 1.31198e-014
rhumerus -27.6805 -22.3876 -37.0601
rradius 149.059
rwrist 0.616467
rhand -36.8544 -18.4435
rfingers 7.12502
rthumb -9.93422 -48.189
lclavicle 1.10325e-014 1.31198e-014
lhumerus -22.2082 18.1852 29.573
lradius 135.432
lwrist 27.9513
lhand -16.223 -22.5981
lfingers 7.12502
lthumb 9.985 7.14503
rfemur -23 22.1416 12.8759
rtibia 26.3651
rfoot -15.5248 -21.6131
rtoes -12.6041
lfemur 0 0 0
ltibia 0
lfoot 0 0
ltoes 0
4
root 6.87557 15.7107 25.0743 43.4919 -87.7287 -26.7891
lowerback -25.2844 1.62954 1.78352
upperback -6.60428 1.00716 1.38196
thorax 6.73918 0.272468 0.768277
lowerneck -14.5223 8.02917 8.03172
upperneck 18.6505 11.7122 -11.9475
head 9.49203 4.76966 -3.91247
rclavicle -1.03368e-014 -3.18055e-015
rhumerus -26.7894 -23.5205 -36.2335
rradius 149.084
rwrist 0.883444
rhand -36.8426 -19.1644
rfingers 7.12502
rthumb -9.92281 -48.9106
lclavicle -1.03368e-014 -3.18055e-015
lhumerus -21.9903 19.2389 28.4632
lradius 135.403
lwrist 27.5368
lhand -16.772 -23.5334
lfingers 7.12502
lthumb 9.4553 6.23451
rfemur -22.9795 22.18 12.8718
rtibia 26.364
rfoot -15.4944 -21.7329
rtoes -12.7921
lfemur 0 0 0
ltibia 0
lfoot 0 0
ltoes 0
5
root 6.86743 15.7101 25.0743 42.9267 -87.6957 -26.1943
lowerback -25.3408 1.60146 1.75103
upperback -6.6265 0.974554 1.38662
thorax 6.74219 0.255226 0.782725
lowerneck -14.4809 8.05942 7.87388
upperneck 18.4373 11.7437 -11.815
head 9.39456 4.79647 -3.83426
rclavicle -3.47873e-015 -3.97569e-015
rhumerus -25.9294 -24.6996 -35.3673
rradius 149.097
rwrist 1.13312
rhand -36.7264 -19.847
rfingers 7.12502
rthumb -9.81065 -49.5984
lclavicle -3.47873e-015 -3.97569e-015
lhumerus -21.7455 20.2937 27.3963
lradius 135.34
lwrist 27.2388
lhand -17.1464 -24.4948
lfingers 7.12502
lthumb 9.09408 5.28913
rfemur -22.9613 22.201 12.8715
rtibia 26.356
rfoot -15.5136 -21.8004
rtoes -12.7692
lfemur 0 0 0
ltibia 0
lfoot 0 0
ltoes 0
6
root 6.85959 15.7095 25.0744 42.4026 -87.6591 -25.6437
lowerback -25.3842 1.57644 1.72479
upperback -6.64928 0.945391 1.38729
thorax 6.73834 0.239806 0.790026
lowerneck -14.4091 8.08507 7.6544
upperneck 18.186 11.7666 -11.6196
head 9.26929 4.82427 -3.72665
rclavicle 1.20265e-014 -2.38542e-015
rhumerus -25.0736 -25.829 -34.5538
rradius 149.106
rwrist 1.34765
rhand -36.5955 -20.668
rfingers 7.12502
rthumb -9.68435 -50.4254
lclavicle 1.20265e-014 -2.38542e-015
lhumerus -21.5447 21.3645 26.2985
lradius 135.236
lwrist 26.8266
lhand -17.4633 -25.696
lfingers 7.12502
lthumb 8.78826 4.101
rfemur -22.9399 22.2212 12.8758
rtibia 26.3472
rfoot -15.5275 -21.8706
rtoes -12.7578
lfemur 0 0 0
ltibia 0
lfoot 0 0
ltoes 0
7
root 6.85201 15.7089 25.0745 41.8916 -87.6187 -25.1089
lowerback -25.4182 1.5502 1.70056
upperback -6.67265 0.914435 1.38976
thorax 6.7291 0.223593 0.797416
lowerneck -14.3241 8.10672 7.4325
upperneck 17.9183 11.785 -11.4317
head 9.1363 4.85012 -3.62328
rclavicle -1.09332e-014 -1.19271e-014
rhumerus -24.204 -26.8992 -33.7873
rradius 149.104
rwrist 1.50978
rhand -36.4626 -21.6024
rfingers 7.12502
rthumb -9.55615 -51.3657
lclavicle -1.09332e-014 -1.19271e-014
lhumerus -21.4043 22.4347 25.1729
lradius 135.094
lwrist 26.3056
lhand -17.9044 -26.8848
lfingers 7.12502
lthumb 8.36256 2.92964
rfemur -22.915 22.2437 12.8829
rtibia 26.3374
rfoot -15.5351 -21.9457
rtoes -12.7728
lfemur 0 0 0
ltibia 0
lfoot 0 0
ltoes 0
8
root 6.84464 15.7082 25.0746 41.4039 -87.5782 -24.6
lowerback -25.4434 1.52242 1.67565
upperback -6.69677 0.881676 1.39618
thorax 6.71459 0.206532 0.808814
lowerneck -14.2346 8.12366 7.24897
upperneck 17.6467 11.7989 -11.2965
head 9.00733 4.8714 -3.54592
rclavicle 4.96962e-016 2.3059e-014
rhumerus -23.3132 -27.9048 -33.0634
rradius 149.08
rwrist 1.58948
rhand -36.3303 -22.6
rfingers 7.12502
rthumb -9.42847 -52.3691
lclavicle 4.96962e-016 2.3059e-014
lhumerus -21.3284 23.4901 24.0247
lradius 134.914
lwrist 25.696
lhand -18.5535 -27.952
lfingers 7.12502
lthumb 7.73609 1.88646
rfemur -22.8883 22.2642 12.8907
rtibia 26.3279
rfoot -15.5456 -22.0152
rtoes -12.7861
lfemur 0 0 0
ltibia 0
lfoot 0 0
ltoes 0
9
root 6.83738 15.7076 25.0748 40.9426 -87.5401 -24.1211
lowerback -25.4632 1.49243 1.65169
upperback -6.71848 0.846071 1.4043
thorax 6.7 0.188237 0.820595
lowerneck -14.1567 8.14101 7.14559
upperneck 17.3834 11.8141 -11.2483
head 8.89507 4.889 -3.51142
rclavicle -2.88238e-015 3.97569e-016
rhumerus -22.3913 -28.8531 -32.3832
rradius 149.027
rwrist 1.52447
rhand -36.2035 -23.627
rfingers 7.12502
rthumb -9.30621 -53.4016
lclavicle -2.88238e-015 3.97569e-016
lhumerus -21.3158 24.5458 22.8443
lradius 134.695
lwrist 25.1139
lhand -19.2845 -28.8885
lfingers 7.12502
lthumb 7.03057 0.974761
rfemur -22.8596 22.2751 12.8998
rtibia 26.3212
rfoot -15.5608 -22.0721
rtoes -12.7982
lfemur 0 0 0
ltibia 0
lfoot 0 0
ltoes 0
10
root 6.83022 15.707 25.0751 40.4799 -87.5063 -23.6442
lowerback -25.4804 1.46 1.62862
upperback -6.73603 0.807545 1.4117
thorax 6.68884 0.168723 0.830213
lowerneck -14.1577 8.15789 7.29625
upperneck 17.1911 11.8309 -11.4653
head 8.85649 4.89177 -3.60597
rclavicle 2.48481e-015 -5.56597e-015
rhumerus -21.4342 -29.7333 -31.7582
rradius 148.945
rwrist 1.25134
rhand -36.1282 -24.6379
rfingers 7.12502
rthumb -9.23348 -54.4157
lclavicle 2.48481e-015 -5.56597e-015
lhumerus -21.356 25.5584 21.6511
lradius 134.454
lwrist 24.5106
lhand -20.3419 -29.3955
lfingers 7.12502
lthumb 6.00974 0.49926
rfemur -22.8307 22.2832 12.9068
rtibia 26.3198
rfoot -15.5843 -22.1215
rtoes -12.8026
lfemur 0 0 0
ltibia 0
lfoot 0 0
ltoes 0
11
root 6.82322 15.7063 25.0753 40.002 -87.4786 -23.1562
lowerback -25.4921 1.42444 1.60181
upperback -6.75162 0.766117 1.42093
thorax 6.67709 0.147891 0.843036
lowerneck -14.1686 8.17797 7.46691
upperneck 17.0145 11.8512 -11.6954
head 8.82778 4.89519 -3.70752
rclavicle 2.26615e-014 -1.03368e-014
rhumerus -20.4479 -30.5357 -31.1851
rradius 148.839
rwrist 0.691939
rhand -36.1211 -25.5303
rfingers 7.12502
rthumb -9.22665 -55.3084
lclavicle 2.26615e-014 -1.03368e-014
lhumerus -21.444 26.5652 20.4476
lradius 134.176
lwrist 24.06
lhand -21.3238 -29.8528
lfingers 7.12502
lthumb 5.06171 0.0667591
rfemur -22.8027 22.2648 12.9144
rtibia 26.3252
rfoot -15.6165 -22.1409
rtoes -12.8175
lfemur 0 0 0
ltibia 0
lfoot 0 0
ltoes 0
12
root 6.81643 15.7056 25.0755 39.4767 -87.4572 -22.6228
lowerback -25.5026 1.38737 1.5707
upperback -6.76231 0.724218 1.43019
thorax 6.67005 0.127004 0.858269
lowerneck -14.1984 8.19558 7.62808
upperneck 16.8561 11.8681 -11.9131
head 8.80702 4.89628 -3.8033
rclavicle -3.47873e-015 6.75868e-015
rhumerus -19.4282 -31.264 -30.654
rradius 148.71
rwrist -0.26183
rhand -36.2285 -26.2442
rfingers 7.12502
rthumb -9.33033 -56.0177
lclavicle -3.47873e-015 6.75868e-015
lhumerus -21.561 27.5602 19.2502
lradius 133.863
lwrist 23.8122
lhand -22.2096 -30.3045
lfingers 7.12502
lthumb 4.20636 -0.366284
rfemur -22.7787 22.2562 12.9147
rtibia 26.3382
rfoot -15.6557 -22.1651
rtoes -12.802
lfemur 0 0 0
ltibia 0
lfoot 0 0
ltoes 0
